{
  "accessors": [
    {
      "bufferView": 2,
      "componentType": 5126,
      "count": 24514,
      "max": [
        7.682217597961426,
        1.0013020038604736,
        17.024459838867188
      ],
      "min": [
        -9.455659866333008,
        -1.0013020038604736,
        -1.0000001192092896
      ],
      "type": "VEC3"
    },
    {
      "bufferView": 2,
      "byteOffset": 294168,
      "componentType": 5126,
      "count": 24514,
      "max": [
        1.0,
        1.0,
        1.0
      ],
      "min": [
        -1.0,
        -1.0,
        -1.0
      ],
      "type": "VEC3"
    },
    {
      "bufferView": 3,
      "componentType": 5126,
      "count": 24514,
      "max": [
        0.8807141780853271,
        1.0,
        0.6086719036102295,
        -1.0
      ],
      "min": [
        -0.9623890519142151,
        -1.0,
        -0.9987134337425232,
        -1.0
      ],
      "type": "VEC4"
    },
    {
      "bufferView": 1,
      "componentType": 5126,
      "count": 24514,
      "max": [
        1.0000001192092896,
        0.976143479347229
      ],
      "min": [
        0.0,
        0.0
      ],
      "type": "VEC2"
    },
    {
      "bufferView": 0,
      "componentType": 5125,
      "count": 82944,
      "type": "SCALAR"
    },
    {
      "bufferView": 2,
      "byteOffset": 588336,
      "componentType": 5126,
      "count": 2462,
      "max": [
        1.0000001192092896,
        1.0000001192092896,
        4.079549312591553
      ],
      "min": [
        -14.477179527282715,
        -1.0000001192092896,
        -4.2707929611206055
      ],
      "type": "VEC3"
    },
    {
      "bufferView": 2,
      "byteOffset": 617880,
      "componentType": 5126,
      "count": 2462,
      "max": [
        1.0,
        1.0,
        1.0
      ],
      "min": [
        -1.0,
        -1.0,
        -1.0
      ],
      "type": "VEC3"
    },
    {
      "bufferView": 3,
      "byteOffset": 392224,
      "componentType": 5126,
      "count": 2462,
      "max": [
        1.0,
        1.0,
        1.0,
        1.0
      ],
      "min": [
        -1.0,
        -1.0,
        -1.0,
        -1.0
      ],
      "type": "VEC4"
    },
    {
      "bufferView": 1,
      "byteOffset": 196112,
      "componentType": 5126,
      "count": 2462,
      "max": [
        1.0,
        0.8696513175964355
      ],
      "min": [
        0.0,
        0.0
      ],
      "type": "VEC2"
    },
    {
      "bufferView": 0,
      "byteOffset": 331776,
      "componentType": 5125,
      "count": 12228,
      "type": "SCALAR"
    },
    {
      "bufferView": 2,
      "byteOffset": 647424,
      "componentType": 5126,
      "count": 44,
      "max": [
        6.2627854347229,
        1.0,
        1.1429120302200317
      ],
      "min": [
        -1.4042346477508545,
        -1.0000001192092896,
        -1.5338177680969238
      ],
      "type": "VEC3"
    },
    {
      "bufferView": 2,
      "byteOffset": 647952,
      "componentType": 5126,
      "count": 44,
      "max": [
        1.0,
        1.0,
        1.0
      ],
      "min": [
        -1.0,
        -1.0,
        -1.0
      ],
      "type": "VEC3"
    },
    {
      "bufferView": 3,
      "byteOffset": 431616,
      "componentType": 5126,
      "count": 44,
      "max": [
        1.0,
        1.0,
        1.0,
        -1.0
      ],
      "min": [
        -6.273715769111732e-08,
        -1.0,
        -1.0,
        -1.0
      ],
      "type": "VEC4"
    },
    {
      "bufferView": 1,
      "byteOffset": 215808,
      "componentType": 5126,
      "count": 44,
      "max": [
        1.0000001192092896,
        0.9968545436859131
      ],
      "min": [
        0.0,
        0.0
      ],
      "type": "VEC2"
    },
    {
      "bufferView": 0,
      "byteOffset": 380688,
      "componentType": 5125,
      "count": 84,
      "type": "SCALAR"
    }
  ],
  "asset": {
    "extras": {
      "author": "beyter (https://sketchfab.com/beyter)",
      "license": "CC-BY-4.0 (http://creativecommons.org/licenses/by/4.0/)",
      "source": "https://sketchfab.com/3d-models/hammer-and-sickle-monument-de347e633cd14a61966c6f8c880e258b",
      "title": "Hammer and Sickle Monument"
    },
    "generator": "Sketchfab-12.67.0",
    "version": "2.0"
  },
  "bufferViews": [
    {
      "buffer": 0,
      "byteLength": 381024,
      "name": "floatBufferViews",
      "target": 34963
    },
    {
      "buffer": 0,
      "byteLength": 216160,
      "byteOffset": 381024,
      "byteStride": 8,
      "name": "floatBufferViews",
      "target": 34962
    },
    {
      "buffer": 0,
      "byteLength": 648480,
      "byteOffset": 597184,
      "byteStride": 12,
      "name": "floatBufferViews",
      "target": 34962
    },
    {
      "buffer": 0,
      "byteLength": 432320,
      "byteOffset": 1245664,
      "byteStride": 16,
      "name": "floatBufferViews",
      "target": 34962
    }
  ],
  "buffers": [
    {
      "byteLength": 1677984,
      "uri": "scene.bin"
    }
  ],
  "extensionsUsed": [
    "KHR_texture_transform",
    "KHR_materials_clearcoat"
  ],
  "images": [
    {
      "uri": "textures/Material.002_baseColor.png"
    },
    {
      "uri": "textures/Material.002_normal.png"
    },
    {
      "uri": "textures/Material.002_clearcoat.png"
    },
    {
      "uri": "textures/Material.004_baseColor.png"
    }
  ],
  "materials": [
    {
      "doubleSided": true,
      "extensions": {
        "KHR_materials_clearcoat": {
          "clearcoatFactor": 1.0,
          "clearcoatRoughnessFactor": 0.3,
          "clearcoatTexture": {
            "extensions": {
              "KHR_texture_transform": {
                "scale": [
                  0.34999999999999987,
                  0.34999999999999987
                ]
              }
            },
            "index": 2
          }
        }
      },
      "name": "Material.002",
      "normalTexture": {
        "extensions": {
          "KHR_texture_transform": {
            "scale": [
              3.4999999999999964,
              3.4999999999999964
            ]
          }
        },
        "index": 1,
        "scale": 0.3
      },
      "pbrMetallicRoughness": {
        "baseColorTexture": {
          "extensions": {
            "KHR_texture_transform": {
              "scale": [
                0.34999999999999987,
                0.34999999999999987
              ]
            }
          },
          "index": 0
        },
        "metallicFactor": 0.0,
        "roughnessFactor": 0.5
      }
    },
    {
      "doubleSided": true,
      "extensions": {
        "KHR_materials_clearcoat": {
          "clearcoatFactor": 1.0,
          "clearcoatRoughnessFactor": 0.5
        }
      },
      "name": "Material.004",
      "normalTexture": {
        "extensions": {
          "KHR_texture_transform": {
            "scale": [
              1.3999999999999997,
              1.8999999999999988
            ]
          }
        },
        "index": 1,
        "scale": 0.5
      },
      "pbrMetallicRoughness": {
        "baseColorTexture": {
          "extensions": {
            "KHR_texture_transform": {
              "scale": [
                1.3999999999999997,
                1.8999999999999988
              ]
            }
          },
          "index": 3
        },
        "metallicFactor": 0.5,
        "roughnessFactor": 0.8211145618000169
      }
    }
  ],
  "meshes": [
    {
      "name": "Cube.001_Material.002_0",
      "primitives": [
        {
          "attributes": {
            "NORMAL": 1,
            "POSITION": 0,
            "TANGENT": 2,
            "TEXCOORD_0": 3
          },
          "indices": 4,
          "material": 0,
          "mode": 4
        }
      ]
    },
    {
      "name": "Cube.002_Material.002_0",
      "primitives": [
        {
          "attributes": {
            "NORMAL": 6,
            "POSITION": 5,
            "TANGENT": 7,
            "TEXCOORD_0": 8
          },
          "indices": 9,
          "material": 0,
          "mode": 4
        }
      ]
    },
    {
      "name": "Cube.003_Material.004_0",
      "primitives": [
        {
          "attributes": {
            "NORMAL": 11,
            "POSITION": 10,
            "TANGENT": 12,
            "TEXCOORD_0": 13
          },
          "indices": 14,
          "material": 1,
          "mode": 4
        }
      ]
    }
  ],
  "nodes": [
    {
      "children": [
        1
      ],
      "matrix": [
        0.014285714365541935,
        2.2973180456340208e-18,
        5.101070778299512e-34,
        0.0,
        0.0,
        3.1720658023686032e-18,
        -0.014285714365541935,
        0.0,
        -2.2973180456340208e-18,
        0.014285714365541935,
        3.1720658023686032e-18,
        0.0,
        20.0741024017334,
        -5.872582912445068,
        2.318544828600592e-06,
        1.0
      ],
      "name": "Sketchfab_model"
    },
    {
      "children": [
        2
      ],
      "matrix": [
        1.0,
        0.0,
        0.0,
        0.0,
        0.0,
        0.0,
        1.0,
        0.0,
        0.0,
        -1.0,
        0.0,
        0.0,
        0.0,
        0.0,
        0.0,
        1.0
      ],
      "name": "69f3304365244e5facfd0b8f85e7be11.fbx"
    },
    {
      "children": [
        3,
        6,
        8,
        10,
        12,
        14,
        17
      ],
      "name": "RootNode"
    },
    {
      "children": [
        4
      ],
      "matrix": [
        -29.08647719990347,
        -5.518906457566863,
        -95.51711910171437,
        0.0,
        56.63930913109449,
        79.46723428563203,
        -21.83912397841966,
        0.0,
        77.11008775993375,
        -60.45246356562044,
        -19.98834696773717,
        0.0,
        407.6245422363281,
        590.38623046875,
        -100.54539489746094,
        1.0
      ],
      "name": "Light"
    },
    {
      "children": [
        5
      ],
      "matrix": [
        1.0,
        0.0,
        0.0,
        0.0,
        0.0,
        2.220446049250313e-16,
        1.0,
        0.0,
        0.0,
        -1.0,
        2.220446049250313e-16,
        0.0,
        0.0,
        0.0,
        0.0,
        1.0
      ],
      "name": "Object_4"
    },
    {
      "name": "Object_5"
    },
    {
      "children": [
        7
      ],
      "matrix": [
        -3.809701152545431e-07,
        -8.71557939353647,
        -99.61946170280243,
        0.0,
        -1.6633525231571647e-08,
        99.6194617028024,
        -8.71557939353647,
        0.0,
        100.00000000000003,
        -1.6633526500609008e-08,
        -3.8097014432025844e-07,
        0.0,
        -50.973426818847656,
        62.20432662963867,
        715.8048095703125,
        1.0
      ],
      "name": "Camera"
    },
    {
      "name": "Object_7"
    },
    {
      "children": [
        9
      ],
      "matrix": [
        6.8640611504032245,
        -5.759630244932855,
        4.974018341271627e-16,
        0.0,
        -2.5176144348141347e-07,
        -3.00037654914657e-07,
        -8.960394859313958,
        0.0,
        5.759630244932849,
        6.864061150403217,
        -3.916713148148219e-07,
        0.0,
        -125.69213104248047,
        -34.70014953613281,
        0.0,
        1.0
      ],
      "name": "Cube.001"
    },
    {
      "mesh": 0,
      "name": "Cube.001_Material.002_0"
    },
    {
      "children": [
        11
      ],
      "matrix": [
        5.656853114333554,
        -5.656853361602475,
        -8.881782608814476e-16,
        0.0,
        -2.472689679677842e-07,
        -2.4726895730964316e-07,
        -7.999999999999993,
        0.0,
        5.65685336160247,
        5.65685311433355,
        -3.496910579751131e-07,
        0.0,
        -1.3374155759811401,
        -38.55587387084961,
        -0.4213005304336548,
        1.0
      ],
      "name": "Cube.002"
    },
    {
      "mesh": 1,
      "name": "Cube.002_Material.002_0"
    },
    {
      "children": [
        13
      ],
      "matrix": [
        17.573392868041992,
        0.0,
        0.0,
        0.0,
        -0.0,
        -2.863069105280966e-06,
        -17.57339286804176,
        0.0,
        0.0,
        17.57339286804176,
        -2.863069105280966e-06,
        0.0,
        -106.64900207519531,
        -66.09877014160156,
        8.961021423339844,
        1.0
      ],
      "name": "Cube.003"
    },
    {
      "mesh": 2,
      "name": "Cube.003_Material.004_0"
    },
    {
      "children": [
        15
      ],
      "matrix": [
        -29.08647719990347,
        -5.518906457566863,
        -95.51711910171437,
        0.0,
        56.63930913109449,
        79.46723428563203,
        -21.83912397841966,
        0.0,
        77.11008775993375,
        -60.45246356562044,
        -19.98834696773717,
        0.0,
        -686.4361572265625,
        590.38623046875,
        -100.54539489746094,
        1.0
      ],
      "name": "Light.001"
    },
    {
      "children": [
        16
      ],
      "matrix": [
        1.0,
        0.0,
        0.0,
        0.0,
        0.0,
        2.220446049250313e-16,
        1.0,
        0.0,
        0.0,
        -1.0,
        2.220446049250313e-16,
        0.0,
        0.0,
        0.0,
        0.0,
        1.0
      ],
      "name": "Object_15"
    },
    {
      "name": "Object_16"
    },
    {
      "children": [
        18
      ],
      "matrix": [
        -29.08647719990347,
        -5.518906457566863,
        -95.51711910171437,
        0.0,
        56.63930913109449,
        79.46723428563203,
        -21.83912397841966,
        0.0,
        77.11008775993375,
        -60.45246356562044,
        -19.98834696773717,
        0.0,
        -245.9794464111328,
        590.38623046875,
        684.3267211914063,
        1.0
      ],
      "name": "Light.002"
    },
    {
      "children": [
        19
      ],
      "matrix": [
        1.0,
        0.0,
        0.0,
        0.0,
        0.0,
        2.220446049250313e-16,
        1.0,
        0.0,
        0.0,
        -1.0,
        2.220446049250313e-16,
        0.0,
        0.0,
        0.0,
        0.0,
        1.0
      ],
      "name": "Object_18"
    },
    {
      "name": "Object_19"
    }
  ],
  "samplers": [
    {
      "magFilter": 9729,
      "minFilter": 9987,
      "wrapS": 10497,
      "wrapT": 10497
    }
  ],
  "scene": 0,
  "scenes": [
    {
      "name": "Sketchfab_Scene",
      "nodes": [
        0
      ]
    }
  ],
  "textures": [
    {
      "sampler": 0,
      "source": 0
    },
    {
      "sampler": 0,
      "source": 1
    },
    {
      "sampler": 0,
      "source": 2
    },
    {
      "sampler": 0,
      "source": 3
    }
  ]
}
